<svg width="343" height="40" viewBox="0 0 343 40" fill="none" xmlns="http://www.w3.org/2000/svg">
<path d="M18.7872 0L37.5459 11.2532L37.5374 20.8323L37.5459 34.1363L28.3475 40L28.3475 26.497L18.7584 32.4079L9.16927 26.5088L9.16929 40L0.00214452 34.1583L0.00212445 20.8693L0 20.868L0.00212445 18.4733L0.00214452 11.2339L0.049619 11.2642L18.7872 0ZM18.786 1.35085L1.13809 11.9599L1.15607 11.9714L1.15569 33.5208L8.04478 37.9232L8.04441 16.0537L8.06595 16.0669L18.7604 9.65246L29.3745 16.0603L18.7564 22.6362L9.16927 16.7481V25.1483L18.7597 31.0482L36.4098 20.1651V19.3667L36.4164 11.9271L18.786 1.35085ZM36.3864 21.5418L29.4758 25.8015V37.9049L36.3864 33.4923V21.5418ZM18.759 10.9964L10.1512 16.0533L18.7556 21.2806L27.3327 16.0476L18.759 10.9964Z" fill="#0E1B3B"/>
<path d="M80.9614 27.5713H67.5513V30.9216H80.9614V27.5713Z" fill="#0E1B3B"/>
<path fill-rule="evenodd" clip-rule="evenodd" d="M70.791 13.3834V30.9328H67.5541V13.3834H70.791Z" fill="#0E1B3B"/>
<path d="M115.571 20.4033H103.084V23.7213H115.571V20.4033Z" fill="#0E1B3B"/>
<path fill-rule="evenodd" clip-rule="evenodd" d="M104.702 13.3037V30.8531H101.465V13.3037H104.702Z" fill="#0E1B3B"/>
<path fill-rule="evenodd" clip-rule="evenodd" d="M117.427 13.307V30.8564H114.19V13.307H117.427Z" fill="#0E1B3B"/>
<path fill-rule="evenodd" clip-rule="evenodd" d="M50.0073 29.5361L57.9035 26.733V23.2303L50.0073 26.0335V29.5361Z" fill="#BEA36B"/>
<path fill-rule="evenodd" clip-rule="evenodd" d="M58.7031 12.9847L65.531 31.3318H62.1469L56.6046 16.4937L51.0555 31.3318H47.6714L54.5329 12.9847L58.7031 12.9847Z" fill="#0E1B3B"/>
<path fill-rule="evenodd" clip-rule="evenodd" d="M121.76 29.5361L129.656 26.733V23.2303L121.76 26.0335V29.5361Z" fill="#BEA36B"/>
<path fill-rule="evenodd" clip-rule="evenodd" d="M130.455 12.9847L137.283 31.3318H133.899L128.357 16.4937L122.807 31.3318H119.423L126.285 12.9847L130.455 12.9847Z" fill="#0E1B3B"/>
<path fill-rule="evenodd" clip-rule="evenodd" d="M201.064 29.5361L208.961 26.733V23.2303L201.064 26.0335V29.5361Z" fill="#BEA36B"/>
<path fill-rule="evenodd" clip-rule="evenodd" d="M209.759 12.9847L216.587 31.3318H213.203L207.66 16.4937L202.111 31.3318H198.727L205.589 12.9847L209.759 12.9847Z" fill="#0E1B3B"/>
<path d="M264.669 31.3318C266.816 31.3318 268.963 30.6678 270.48 29.684V22.0241H264.202V25.4038H267.217V27.5641C266.252 27.9886 265.395 27.9886 264.809 27.9886C260.978 27.9886 258.947 25.5448 258.947 22.1016C258.947 18.5601 261.121 16.3645 264.809 16.3645C266.723 16.3645 267.811 16.5082 270.038 17.7089V14.3292C268.589 13.607 266.91 12.9847 264.762 12.9847C259.441 12.9847 255.683 16.969 255.683 22.2075C255.683 27.4952 259.464 31.3318 264.669 31.3318Z" fill="#0E1B3B"/>
<path d="M87.2853 30.9328V26.1599H89.1894C91.9095 26.1599 94.0312 25.9342 95.636 24.9471C97.2681 23.9317 98.3833 22.1549 98.3833 19.7293C98.3833 17.1628 97.1049 15.4141 95.3912 14.4552C93.732 13.5244 91.6647 13.3834 89.543 13.3834H84.0483V30.9328H87.2853ZM90.1027 22.833H87.2853V16.7338H89.9914C91.569 16.7338 92.7395 16.7602 93.6556 17.2354C94.5971 17.7371 95.1569 18.5292 95.1569 19.7702C95.1569 20.932 94.6735 21.7241 93.8592 22.2258C93.0033 22.7481 91.9482 22.8313 90.1027 22.833Z" fill="#0E1B3B"/>
<path d="M331.288 30.9328V26.1599H333.192C335.912 26.1599 338.034 25.9342 339.638 24.9471C341.271 23.9317 342.386 22.1549 342.386 19.7293C342.386 17.1628 341.107 15.4141 339.394 14.4552C337.734 13.5244 335.667 13.3834 333.545 13.3834H328.051V30.9328H331.288ZM334.105 22.833H331.288V16.7338H333.994C335.571 16.7338 336.742 16.7602 337.658 17.2354C338.6 17.7371 339.159 18.5292 339.159 19.7702C339.159 20.932 338.676 21.7241 337.862 22.2258C337.006 22.7481 335.951 22.8313 334.105 22.833Z" fill="#0E1B3B"/>
<path d="M317.197 31.0924C320.05 31.0924 322.369 30.0112 323.643 28.0596C324.687 26.4508 324.968 24.341 324.968 21.5191V13.224H321.731V21.2528C321.731 23.3362 321.578 24.7603 320.992 25.7889C320.329 26.9757 319.26 27.7141 317.324 27.7141C315.184 27.7141 314.037 26.8174 313.426 25.7098C312.896 24.7437 312.716 23.4675 312.712 21.267L312.712 13.224H309.477V21.7301C309.477 24.3146 309.757 26.4244 310.776 28.0068C311.999 29.932 314.241 31.0924 317.197 31.0924Z" fill="#0E1B3B"/>
<path d="M298.456 31.1721C303.43 31.1721 307.165 27.2572 307.165 22.1582C307.165 17.0591 303.43 13.1442 298.456 13.1442C293.483 13.1442 289.748 17.0591 289.748 22.1582C289.748 27.2572 293.483 31.1721 298.456 31.1721ZM298.456 27.8209C295.321 27.8209 292.985 25.4651 292.985 22.1582C292.985 18.8512 295.321 16.4955 298.456 16.4955C301.592 16.4955 303.927 18.8512 303.927 22.1582C303.927 25.4651 301.592 27.8209 298.456 27.8209Z" fill="#0E1B3B"/>
<path d="M170.134 30.8531C174.976 30.8531 178.612 27.0421 178.612 22.0784C178.612 17.1147 174.976 13.3037 170.134 13.3037C165.293 13.3037 161.657 17.1147 161.657 22.0784C161.657 27.0421 165.293 30.8531 170.134 30.8531ZM170.134 27.5908C167.082 27.5908 164.809 25.2975 164.809 22.0784C164.809 18.8592 167.082 16.566 170.134 16.566C173.187 16.566 175.46 18.8592 175.46 22.0784C175.46 25.2975 173.187 27.5908 170.134 27.5908Z" fill="#0E1B3B"/>
<path fill-rule="evenodd" clip-rule="evenodd" d="M171.789 24.1312L178.63 27.63L178.234 30.9744L171.392 27.4756L171.789 24.1312Z" fill="#BEA36B"/>
<path d="M189.031 30.9328C191.884 30.9328 194.203 29.8515 195.477 27.8999C196.521 26.2912 196.802 24.1813 196.802 21.3594V13.3834H193.565V21.0931C193.565 23.1766 193.412 24.6007 192.826 25.6292C192.163 26.816 191.094 27.5545 189.158 27.5545C187.018 27.5545 185.871 26.6578 185.26 25.5501C184.73 24.5841 184.55 23.3079 184.546 21.1073L184.546 13.3834H181.311V21.5704C181.311 24.155 181.591 26.2648 182.61 27.8472C183.833 29.7724 186.075 30.9328 189.031 30.9328Z" fill="#0E1B3B"/>
<path fill-rule="evenodd" clip-rule="evenodd" d="M152.249 12.9847C150.396 12.9847 148.892 13.4581 147.748 14.4043C146.574 15.3759 145.975 16.6459 145.975 18.1678C145.975 19.5295 146.445 20.6454 147.369 21.4744C148.237 22.2526 149.607 22.8464 151.508 23.2715L151.711 23.3165L151.843 23.3464L152.041 23.3918L152.239 23.4384L152.37 23.4699C153.735 23.8013 154.726 24.1351 155.317 24.4615C155.887 24.7758 156.15 25.2437 156.15 25.9447C156.15 26.6198 155.88 27.1276 155.307 27.5265C154.676 27.9658 153.821 28.187 152.742 28.187C151.593 28.187 150.625 27.9216 149.829 27.39C149.098 26.9018 148.692 26.1595 148.591 25.1196L148.538 24.548H145.395L145.416 25.1497C145.48 26.9533 146.137 28.4498 147.371 29.6058C148.602 30.7584 150.422 31.3318 152.83 31.3318C154.73 31.3318 156.289 30.814 157.492 29.7808C158.72 28.7261 159.345 27.3761 159.345 25.7746C159.345 24.5024 158.994 23.4662 158.296 22.6877C157.636 21.9513 156.841 21.4065 155.917 21.0576L155.818 21.0206L155.716 20.9834L155.609 20.9455C154.834 20.6738 153.86 20.4016 152.679 20.1272L152.323 20.0453L152.206 20.0179L152.094 19.991L151.981 19.9635L151.872 19.9362C150.826 19.6719 150.086 19.4016 149.696 19.1421C149.336 18.9023 149.17 18.5648 149.17 18.0658C149.17 17.4953 149.403 17.0614 149.902 16.708C150.454 16.3171 151.269 16.1182 152.336 16.1182C154.481 16.1182 155.567 16.8993 155.763 18.5634L155.827 19.1337H158.985L158.96 18.5284C158.887 16.7691 158.219 15.3805 156.973 14.406C155.762 13.4584 154.184 12.9847 152.249 12.9847Z" fill="#0E1B3B"/>
<path d="M218.535 13.3834H224.208L224.35 13.384C226.26 13.3938 228.111 13.5466 229.608 14.3868C231.211 15.2845 232.407 16.9215 232.407 19.3243C232.407 21.595 231.364 23.2585 229.837 24.209C229.409 24.4729 228.94 24.6786 228.431 24.8379L232.341 30.853H228.645L225.056 25.3236C224.655 25.3382 224.239 25.3444 223.806 25.3444H221.772V30.9328H218.535V13.3834ZM224.734 16.654H221.772V21.9986H224.766L224.936 21.9981C226.44 21.9913 227.32 21.9078 228.039 21.4664C228.749 21.0268 229.17 20.3327 229.17 19.3147C229.17 18.2273 228.682 17.5332 227.862 17.0936C227.077 16.6837 226.076 16.6548 224.734 16.654Z" fill="#0E1B3B"/>
<path d="M273.562 13.3834H279.236L279.377 13.384C281.287 13.3938 283.139 13.5466 284.636 14.3868C286.239 15.2845 287.435 16.9215 287.435 19.3243C287.435 21.595 286.392 23.2585 284.865 24.209C284.436 24.4729 283.968 24.6786 283.459 24.8379L287.369 30.853H283.672L280.084 25.3236C279.683 25.3382 279.267 25.3444 278.834 25.3444H276.799V30.9328H273.562V13.3834ZM279.762 16.654H276.799V21.9986H279.794L279.964 21.9981C281.468 21.9913 282.348 21.9078 283.067 21.4664C283.777 21.0268 284.198 20.3327 284.198 19.3147C284.198 18.2273 283.71 17.5332 282.89 17.0936C282.104 16.6837 281.104 16.6548 279.762 16.654Z" fill="#0E1B3B"/>
<path d="M247.59 30.9328H234.719V13.3834H247.59V16.7224H237.958V20.4686H246.819V23.8219H237.958V27.5711H247.59V30.9328Z" fill="#0E1B3B"/>
</svg>
