<svg width="42" height="48" viewBox="0 0 42 48" fill="none" xmlns="http://www.w3.org/2000/svg">
<path d="M39.7591 21.0652L5.55018 0.454638C5.04896 0.15767 4.4771 0.000976562 3.89451 0.000976562C3.31192 0.000976562 2.74006 0.15767 2.23884 0.454638C1.72294 0.756427 1.29734 1.19095 1.00631 1.71299C0.715274 2.23503 0.569448 2.82552 0.583999 3.42303V44.5909C0.575988 45.1872 0.724603 45.7752 1.015 46.2961C1.30539 46.817 1.72739 47.2526 2.23884 47.5593C2.73597 47.8636 3.31106 48.0163 3.89368 47.9988C4.47191 47.9826 5.03846 47.8321 5.54852 47.5593L39.7574 26.9487C40.2734 26.6471 40.6991 26.2126 40.9902 25.6905C41.2812 25.1684 41.427 24.5779 41.4122 23.9803C41.3832 23.3991 41.2186 22.8328 40.9315 22.3266C40.6445 21.8204 40.243 21.3884 39.7591 21.0652ZM4.17004 44.1497L4.00356 3.91582L37.4949 24.0869L4.17004 44.1497Z" fill="#1E3850"/>
</svg>
