<svg width="28" height="28" viewBox="0 0 28 28" fill="none" xmlns="http://www.w3.org/2000/svg">
<path fill-rule="evenodd" clip-rule="evenodd" d="M6.29286 3.56894C6.29286 4.39078 5.99493 5.08931 5.39912 5.6646C4.8033 6.23989 4.03284 6.52752 3.08772 6.52752C2.18372 6.52752 1.44407 6.23989 0.868781 5.6646C0.29349 5.08931 0.00585938 4.39078 0.00585938 3.56894C0.00585938 2.70601 0.29349 1.99719 0.868781 1.44245C1.44407 0.887716 2.20424 0.610349 3.14936 0.610349C4.09447 0.610349 4.84438 0.887716 5.39912 1.44245C5.95385 1.99719 6.25178 2.70601 6.29286 3.56894ZM0.190913 27.9156V8.86974H6.10809V27.9156H0.190913ZM9.49802 8.86974C9.58022 11.1709 9.6213 13.2049 9.6213 14.9718V27.9156H15.6001V16.9442C15.6001 16.2046 15.6617 15.7115 15.785 15.4649C16.3603 13.9856 17.367 13.246 18.8052 13.246C20.8187 13.246 21.8255 14.6226 21.8255 17.3757V27.9156H27.7426V16.636C27.7426 13.924 27.116 11.8797 25.8627 10.5031C24.6094 9.12655 22.9555 8.43828 20.9009 8.43828C18.23 8.43828 16.2781 9.46555 15.0454 11.5201H14.9221L14.6139 8.86974H9.49802Z" fill="white"/>
</svg>
