<svg width="62" height="54" viewBox="0 0 62 54" fill="none" xmlns="http://www.w3.org/2000/svg">
<path d="M61.5453 53.2008H35.6364V34.5136C35.6364 26.89 36.2971 20.9089 37.6187 16.5702C38.9403 12.2315 40.3146 9.33518 43.9106 5.86424C47.5065 2.3933 50.0015 1.35174 55.2797 0L58.9671 7.93133C55.2797 9.34046 53.0332 9.96894 49.5683 13.5638C46.1034 17.1587 45.8478 20.6358 45.8478 23.6244H61.5453V53.2008ZM25.909 53.2008H0V34.5136C0 26.89 0.660781 20.9089 1.98236 16.5702C3.30394 12.2315 4.67827 9.33518 8.27419 5.86424C11.8701 2.3933 14.3651 1.35174 19.6433 0L23.3308 7.93133C19.6433 9.34046 17.3968 9.96894 13.9319 13.5638C10.467 17.1587 10.2115 20.6358 10.2115 23.6244H25.909V53.2008Z" fill="#0E1B3B"/>
</svg>
