<svg width="746" height="768" viewBox="0 0 746 768" fill="none" xmlns="http://www.w3.org/2000/svg">
<mask id="mask0" mask-type="alpha" maskUnits="userSpaceOnUse" x="0" y="0" width="746" height="768">
<path d="M373.284 0L746 216.062L745.831 399.98L746 655.417L563.237 768L563.237 508.743L372.711 622.231L182.184 508.969L182.185 768L0.0426094 655.839L0.0422107 400.691L0 400.666L0.0422107 354.687L0.0426094 215.691L0.98588 216.273L373.284 0ZM373.26 25.9364L22.6128 229.631L22.97 229.851L22.9624 643.6L159.842 728.126L159.834 308.23L160.262 308.485L372.751 185.327L583.642 308.357L372.671 434.616L182.184 321.564V482.847L372.735 596.125L723.426 387.17V371.841L723.558 229.001L373.26 25.9364ZM722.962 413.602L585.654 495.39V727.774L722.962 643.052V413.602ZM372.723 211.13L201.694 308.224L372.655 408.587L543.074 308.114L372.723 211.13Z" fill="#E9DCCD"/>
</mask>
<g mask="url(#mask0)">
<rect x="195" y="-58" width="582" height="945" fill="#E0D3B8"/>
</g>
</svg>
