<svg width="343" height="40" viewBox="0 0 343 40" fill="none" xmlns="http://www.w3.org/2000/svg">
<path d="M18.7872 0L37.5459 11.2532L37.5374 20.8323L37.5459 34.1363L28.3475 40L28.3475 26.497L18.7584 32.4079L9.16927 26.5088L9.16929 40L0.00214452 34.1583L0.00212445 20.8693L0 20.868L0.00212445 18.4733L0.00214452 11.2339L0.049619 11.2642L18.7872 0ZM18.786 1.35085L1.13809 11.9599L1.15607 11.9714L1.15569 33.5208L8.04478 37.9232L8.04441 16.0537L8.06595 16.0669L18.7604 9.65246L29.3745 16.0603L18.7564 22.6362L9.16927 16.7481V25.1483L18.7597 31.0482L36.4098 20.1651V19.3667L36.4164 11.9271L18.786 1.35085ZM36.3864 21.5418L29.4758 25.8016V37.9049L36.3864 33.4923V21.5418ZM18.759 10.9964L10.1512 16.0533L18.7556 21.2806L27.3327 16.0476L18.759 10.9964Z" fill="white"/>
<path d="M80.9617 27.5718H67.5515V30.9221H80.9617V27.5718Z" fill="white"/>
<path fill-rule="evenodd" clip-rule="evenodd" d="M70.7913 13.3838V30.9332H67.5543V13.3838H70.7913Z" fill="white"/>
<path d="M115.571 20.4033H103.084V23.7213H115.571V20.4033Z" fill="white"/>
<path fill-rule="evenodd" clip-rule="evenodd" d="M104.703 13.3037V30.8531H101.466V13.3037H104.703Z" fill="white"/>
<path fill-rule="evenodd" clip-rule="evenodd" d="M117.427 13.3071V30.8565H114.19V13.3071H117.427Z" fill="white"/>
<path fill-rule="evenodd" clip-rule="evenodd" d="M50.0073 29.5361L57.9035 26.733V23.2303L50.0073 26.0335V29.5361Z" fill="white"/>
<path fill-rule="evenodd" clip-rule="evenodd" d="M58.7031 12.9849L65.531 31.332H62.1469L56.6046 16.4938L51.0555 31.332H47.6714L54.5329 12.9849L58.7031 12.9849Z" fill="white"/>
<path fill-rule="evenodd" clip-rule="evenodd" d="M121.76 29.5361L129.656 26.733V23.2303L121.76 26.0335V29.5361Z" fill="white"/>
<path fill-rule="evenodd" clip-rule="evenodd" d="M130.455 12.9849L137.283 31.332H133.899L128.357 16.4938L122.807 31.332H119.423L126.285 12.9849L130.455 12.9849Z" fill="white"/>
<path fill-rule="evenodd" clip-rule="evenodd" d="M201.064 29.5361L208.961 26.733V23.2303L201.064 26.0335V29.5361Z" fill="white"/>
<path fill-rule="evenodd" clip-rule="evenodd" d="M209.759 12.9849L216.587 31.332H213.203L207.66 16.4938L202.111 31.332H198.727L205.589 12.9849L209.759 12.9849Z" fill="white"/>
<path d="M264.669 31.3319C266.816 31.3319 268.963 30.6679 270.48 29.6841V22.0242H264.202V25.4039H267.217V27.5642C266.252 27.9887 265.395 27.9887 264.809 27.9887C260.978 27.9887 258.947 25.5449 258.947 22.1018C258.947 18.5602 261.121 16.3646 264.809 16.3646C266.723 16.3646 267.811 16.5083 270.038 17.709V14.3293C268.589 13.6072 266.91 12.9849 264.762 12.9849C259.441 12.9849 255.683 16.9691 255.683 22.2076C255.683 27.4953 259.464 31.3319 264.669 31.3319Z" fill="white"/>
<path d="M87.2853 30.9332V26.1602H89.1894C91.9095 26.1602 94.0312 25.9346 95.636 24.9475C97.2681 23.9321 98.3833 22.1553 98.3833 19.7297C98.3833 17.1631 97.1049 15.4145 95.3912 14.4555C93.732 13.5248 91.6647 13.3838 89.543 13.3838H84.0483V30.9332H87.2853ZM90.1027 22.8334H87.2853V16.7341H89.9914C91.569 16.7341 92.7395 16.7605 93.6556 17.2358C94.5971 17.7375 95.1569 18.5296 95.1569 19.7706C95.1569 20.9323 94.6735 21.7244 93.8592 22.2261C93.0033 22.7485 91.9482 22.8317 90.1027 22.8334Z" fill="white"/>
<path d="M331.288 30.9332V26.1602H333.192C335.912 26.1602 338.034 25.9346 339.638 24.9475C341.271 23.9321 342.386 22.1553 342.386 19.7297C342.386 17.1631 341.107 15.4145 339.394 14.4555C337.734 13.5248 335.667 13.3838 333.545 13.3838H328.051V30.9332H331.288ZM334.105 22.8334H331.288V16.7341H333.994C335.571 16.7341 336.742 16.7605 337.658 17.2358C338.6 17.7375 339.159 18.5296 339.159 19.7706C339.159 20.9323 338.676 21.7244 337.862 22.2261C337.006 22.7485 335.951 22.8317 334.105 22.8334Z" fill="white"/>
<path d="M317.197 31.0926C320.05 31.0926 322.369 30.0113 323.643 28.0597C324.687 26.4509 324.968 24.3411 324.968 21.5192V13.2241H321.731V21.2529C321.731 23.3363 321.578 24.7605 320.992 25.789C320.329 26.9758 319.26 27.7142 317.324 27.7142C315.184 27.7142 314.037 26.8176 313.426 25.7099C312.896 24.7439 312.716 23.4676 312.712 21.2671L312.712 13.2241H309.477V21.7302C309.477 24.3147 309.757 26.4246 310.776 28.0069C311.999 29.9322 314.241 31.0926 317.197 31.0926Z" fill="white"/>
<path d="M298.456 31.1725C303.43 31.1725 307.165 27.2576 307.165 22.1585C307.165 17.0595 303.43 13.1445 298.456 13.1445C293.483 13.1445 289.748 17.0595 289.748 22.1585C289.748 27.2576 293.483 31.1725 298.456 31.1725ZM298.456 27.8212C295.321 27.8212 292.985 25.4655 292.985 22.1585C292.985 18.8516 295.321 16.4958 298.456 16.4958C301.592 16.4958 303.927 18.8516 303.927 22.1585C303.927 25.4655 301.592 27.8212 298.456 27.8212Z" fill="white"/>
<path d="M170.134 30.8531C174.976 30.8531 178.612 27.0421 178.612 22.0784C178.612 17.1147 174.976 13.3037 170.134 13.3037C165.293 13.3037 161.657 17.1147 161.657 22.0784C161.657 27.0421 165.293 30.8531 170.134 30.8531ZM170.134 27.5908C167.082 27.5908 164.809 25.2975 164.809 22.0784C164.809 18.8592 167.082 16.566 170.134 16.566C173.187 16.566 175.46 18.8592 175.46 22.0784C175.46 25.2975 173.187 27.5908 170.134 27.5908Z" fill="white"/>
<path fill-rule="evenodd" clip-rule="evenodd" d="M171.789 24.1313L178.63 27.6301L178.234 30.9745L171.392 27.4757L171.789 24.1313Z" fill="white"/>
<path d="M189.031 30.9332C191.884 30.9332 194.203 29.8519 195.477 27.9003C196.521 26.2915 196.802 24.1817 196.802 21.3598V13.3838H193.565V21.0935C193.565 23.1769 193.412 24.6011 192.826 25.6296C192.163 26.8164 191.094 27.5548 189.158 27.5548C187.018 27.5548 185.871 26.6581 185.26 25.5505C184.73 24.5844 184.55 23.3082 184.546 21.1077L184.546 13.3838H181.311V21.5708C181.311 24.1553 181.591 26.2652 182.61 27.8475C183.833 29.7727 186.075 30.9332 189.031 30.9332Z" fill="white"/>
<path fill-rule="evenodd" clip-rule="evenodd" d="M152.249 12.9849C150.396 12.9849 148.892 13.4582 147.748 14.4044C146.574 15.376 145.975 16.646 145.975 18.1679C145.975 19.5296 146.445 20.6455 147.369 21.4745C148.237 22.2527 149.607 22.8465 151.508 23.2716L151.711 23.3167L151.843 23.3465L152.041 23.3919L152.239 23.4385L152.37 23.4701C153.735 23.8015 154.726 24.1352 155.317 24.4616C155.887 24.7759 156.15 25.2438 156.15 25.9448C156.15 26.62 155.88 27.1277 155.307 27.5266C154.676 27.966 153.821 28.1872 152.742 28.1872C151.593 28.1872 150.625 27.9218 149.829 27.3902C149.098 26.9019 148.692 26.1596 148.591 25.1198L148.538 24.5481H145.395L145.416 25.1499C145.48 26.9534 146.137 28.45 147.371 29.606C148.602 30.7585 150.422 31.3319 152.83 31.3319C154.73 31.3319 156.289 30.8141 157.492 29.7809C158.72 28.7262 159.345 27.3762 159.345 25.7748C159.345 24.5025 158.994 23.4663 158.296 22.6878C157.636 21.9514 156.841 21.4067 155.917 21.0577L155.818 21.0207L155.716 20.9835L155.609 20.9456C154.834 20.6739 153.86 20.4017 152.679 20.1273L152.323 20.0454L152.206 20.0181L152.094 19.9911L151.981 19.9636L151.872 19.9363C150.826 19.672 150.086 19.4017 149.696 19.1422C149.336 18.9024 149.17 18.565 149.17 18.0659C149.17 17.4954 149.403 17.0615 149.902 16.7082C150.454 16.3172 151.269 16.1183 152.336 16.1183C154.481 16.1183 155.567 16.8994 155.763 18.5635L155.827 19.1338H158.985L158.96 18.5285C158.887 16.7692 158.219 15.3806 156.973 14.4061C155.762 13.4585 154.184 12.9849 152.249 12.9849Z" fill="white"/>
<path d="M218.535 13.3838H224.208L224.35 13.3843C226.26 13.3942 228.111 13.5469 229.608 14.3871C231.211 15.2849 232.407 16.9219 232.407 19.3246C232.407 21.5954 231.364 23.2588 229.837 24.2094C229.409 24.4732 228.94 24.679 228.431 24.8383L232.341 30.8534H228.645L225.056 25.3239C224.655 25.3386 224.239 25.3447 223.806 25.3447H221.772V30.9332H218.535V13.3838ZM224.734 16.6544H221.772V21.9989H224.766L224.936 21.9985C226.44 21.9917 227.32 21.9082 228.039 21.4668C228.749 21.0272 229.17 20.3331 229.17 19.3151C229.17 18.2276 228.682 17.5335 227.862 17.094C227.077 16.6841 226.076 16.6552 224.734 16.6544Z" fill="white"/>
<path d="M273.562 13.3838H279.236L279.377 13.3843C281.287 13.3942 283.139 13.5469 284.636 14.3871C286.239 15.2849 287.435 16.9219 287.435 19.3246C287.435 21.5954 286.392 23.2588 284.865 24.2094C284.436 24.4732 283.968 24.679 283.459 24.8383L287.369 30.8534H283.672L280.084 25.3239C279.683 25.3386 279.267 25.3447 278.834 25.3447H276.799V30.9332H273.562V13.3838ZM279.762 16.6544H276.799V21.9989H279.794L279.964 21.9985C281.468 21.9917 282.348 21.9082 283.067 21.4668C283.777 21.0272 284.198 20.3331 284.198 19.3151C284.198 18.2276 283.71 17.5335 282.89 17.094C282.104 16.6841 281.104 16.6552 279.762 16.6544Z" fill="white"/>
<path d="M247.59 30.9332H234.719V13.3838H247.59V16.7227H237.958V20.4689H246.819V23.8222H237.958V27.5714H247.59V30.9332Z" fill="white"/>
</svg>
